<?xml version="1.0" encoding="UTF-8"?>
<svg width="316px" height="60px" viewBox="0 0 316 60" version="1.1" xmlns="http://www.w3.org/2000/svg" xmlns:xlink="http://www.w3.org/1999/xlink">
    <!-- Generator: Sketch 46.2 (44496) - http://www.bohemiancoding.com/sketch -->
    <title>Page 1</title>
    <desc>Created with Sketch.</desc>
    <defs></defs>
    <g id="Page-1" stroke="none" stroke-width="1" fill="none" fill-rule="evenodd">
        <g id="Artboard" fill="#FFFFFF">
            <g id="Page-1">
                <g id="Group-3" transform="translate(258.688525, 0.000000)">
                    <path d="M28.2032255,0.297856773 L28.2032255,12.0451087 C19.0572046,12.0451087 11.8134405,19.4806437 11.8134405,28.6002554 C11.8134405,37.7213684 19.0572046,45.1572787 28.2032255,45.1572787 L28.2032255,56.9045306 C12.6939983,56.9045306 0.0716819246,44.2144659 0.0716819246,28.6002554 C0.0716819246,12.9871708 12.6939983,0.297856773 28.2032255,0.297856773" id="Fill-1"></path>
                </g>
                <polygon id="Fill-4" points="288.196721 22.6229508 288.196721 33.9421057 301.467898 33.9421057 301.467898 47.2131148 312.786885 47.2131148 312.786885 22.6229508"></polygon>
                <g id="Group-8" transform="translate(0.000000, 10.819672)">
                    <path d="M65.1722082,0.368890128 C63.0510055,0.368890128 61.3810669,2.05306021 61.3810669,4.23860143 C61.3810669,6.37856346 63.0510055,8.06273355 65.1722082,8.06273355 C67.3837384,8.06273355 69.053677,6.37856346 69.053677,4.23860143 C69.053677,2.05306021 67.3837384,0.368890128 65.1722082,0.368890128 L65.1722082,0.368890128 Z M79.4794088,3.69240447 L73.702556,3.69240447 L73.702556,10.8852534 L70.5881243,10.8852534 L70.5881243,16.074878 L73.702556,16.074878 L73.702556,34.2398822 L79.4794088,34.2398822 L79.4794088,16.074878 L82.638631,16.074878 L82.638631,10.8852534 L79.4794088,10.8852534 L79.4794088,3.69240447 Z M121.859419,15.8017795 C124.296395,15.8017795 126.282106,17.0764902 127.816553,18.852572 L131.83314,14.8461231 C129.57682,11.978024 126.011497,10.1571164 121.949746,10.1571164 C114.953846,10.1571164 109.447602,15.5290577 109.447602,22.5395899 C109.447602,29.5504987 114.953846,34.9228167 121.949746,34.9228167 C126.011497,34.9228167 129.57682,33.1015324 131.83314,30.23381 L127.816553,26.2273611 C126.32727,27.957487 124.296395,29.2777769 121.814255,29.2777769 C118.113068,29.2777769 115.269992,26.3640987 115.269992,22.5395899 C115.269992,18.7158344 118.113068,15.8017795 121.859419,15.8017795 L121.859419,15.8017795 Z M146.77226,10.1571164 C143.929184,10.1571164 141.491835,11.2491336 139.776733,13.1159972 L139.776733,1.00662217 L133.99988,1.00662217 L133.99988,34.2398822 L139.776733,34.2398822 L139.776733,21.5379776 C139.776733,18.1692608 141.898309,15.8473587 145.418467,15.8473587 C148.713554,15.8473587 150.518237,17.8961623 150.518237,21.5379776 L150.518237,34.2398822 L156.295463,34.2398822 L156.295463,20.4911629 C156.295463,14.0268277 152.278877,10.1571164 146.77226,10.1571164 L146.77226,10.1571164 Z M95.6368297,10.1571164 C88.6864662,10.1571164 83.4056681,15.5290577 83.4056681,22.6763274 C83.4056681,29.7328155 88.2352021,34.9228167 95.7267839,34.9228167 C99.8792351,34.9228167 103.580049,33.3750075 106.288007,30.4613293 L102.406911,26.5919946 C100.511154,28.4125256 98.480279,29.7328155 95.8622751,29.7328155 C92.7030529,29.7328155 90.3108678,27.9119078 89.4990403,24.861492 L107.506681,24.861492 L107.506681,23.4504204 C107.506681,15.4834785 102.632357,10.1571164 95.6368297,10.1571164 L95.6368297,10.1571164 Z M89.363549,20.126906 C90.1302128,17.030911 92.4776075,15.3011617 95.5013385,15.3011617 C98.5254427,15.3011617 100.781763,16.9857085 101.50401,20.126906 L89.363549,20.126906 Z M47.5251305,42.5255017 C43.8243167,42.5255017 40.8905399,39.6122002 40.8905399,35.8332706 L35.0233597,35.8332706 C35.0233597,42.8441794 40.52923,48.2161207 47.5251305,48.2161207 C54.5206577,48.2161207 60.0272745,42.8441794 60.0272745,35.8332706 L54.159721,35.8332706 C54.159721,39.6122002 51.2259443,42.5255017 47.5251305,42.5255017 L47.5251305,42.5255017 Z M62.3287589,34.2398822 L68.105985,34.2398822 L68.105985,10.8852534 L62.3287589,10.8852534 L62.3287589,34.2398822 Z M0.00018662702,34.2398822 L5.77741265,34.2398822 L5.77741265,1.00662217 L0.00018662702,1.00662217 L0.00018662702,34.2398822 Z M20.5355041,10.1571164 C13.5399769,10.1571164 8.03410658,15.5290577 8.03410658,22.5395899 C8.03410658,29.5504987 13.5399769,34.9228167 20.5355041,34.9228167 C27.5314046,34.9228167 33.0372749,29.5504987 33.0372749,22.5395899 C33.0372749,15.5290577 27.5314046,10.1571164 20.5355041,10.1571164 L20.5355041,10.1571164 Z M20.5355041,29.2777769 C16.8346903,29.2777769 13.9009136,26.3185195 13.9009136,22.4940107 C13.9009136,18.7158344 16.8346903,15.8017795 20.5355041,15.8017795 C24.2814817,15.8017795 27.2152584,18.7158344 27.2152584,22.5395899 C27.2152584,26.3640987 24.2814817,29.2777769 20.5355041,29.2777769 L20.5355041,29.2777769 Z M59.8014558,15.5290577 L59.8014558,10.8852534 L51.6772084,10.8852534 C50.3685798,10.4302149 48.9692504,10.1571164 47.5251305,10.1571164 C40.52923,10.1571164 35.0233597,15.5290577 35.0233597,22.5395899 C35.0233597,29.5504987 40.52923,34.9228167 47.5251305,34.9228167 C54.5206577,34.9228167 60.0272745,29.5504987 60.0272745,22.5395899 C60.0272745,20.1724852 59.3949822,17.8505831 58.1315173,16.1204571 L59.8014558,15.5290577 Z M47.5251305,29.2777769 C43.8243167,29.2777769 40.8905399,26.3185195 40.8905399,22.4940107 C40.8905399,18.7158344 43.8243167,15.8017795 47.5251305,15.8017795 C51.271108,15.8017795 54.2048848,18.7158344 54.2048848,22.5395899 C54.2048848,26.3640987 51.271108,29.2777769 47.5251305,29.2777769 L47.5251305,29.2777769 Z" id="Fill-6"></path>
                </g>
                <path d="M214.44714,45.2459016 C213.518628,45.2459016 212.874932,45.1990534 211.729182,44.9343417 L210.870156,44.6494434 L210.870156,40.0625042 L211.622663,40.3036013 C212.266741,40.5096575 212.967707,40.6143995 213.70456,40.6143995 C214.538006,40.6143995 215.152305,40.4769018 215.348162,40.4091051 C215.390541,40.3371188 215.502023,40.0705027 215.502023,39.2794147 L215.502023,34.7690325 L210.893827,36.4300506 L210.893827,31.4938444 L215.502023,29.8316836 L215.502023,22.3332969 L210.491803,22.3332969 L210.491803,17.6751332 L215.502023,17.6751332 L215.502023,10.8196721 L220.064405,10.8196721 L220.064405,17.6751332 L223.278689,17.6751332 L223.278689,22.3332969 L220.064405,22.3332969 L220.064405,28.1851389 L223.278689,27.0314531 L223.278689,31.971849 L220.064405,33.1262966 L220.064405,39.2794147 C220.064405,40.7020019 219.864729,42.7511369 218.135987,44.1112598 C217.160898,44.8753053 215.954444,45.2459016 214.44714,45.2459016" id="Fill-9"></path>
                <path d="M178.521888,18.9092779 L183.033752,18.9092779 L183.033752,15.5161629 L178.521888,15.5161629 L178.521888,18.9092779 Z M187.457278,18.9092779 L191.970256,18.9092779 L191.970256,15.5161629 L187.457278,15.5161629 L187.457278,18.9092779 Z M196.391927,18.9092779 L201.14913,18.9092779 L201.14913,15.5161629 L196.391927,15.5161629 L196.391927,18.9092779 Z M174.098361,23.6065574 L205.57377,23.6065574 L205.57377,10.8196721 L174.098361,10.8196721 L174.098361,23.6065574 Z" id="Fill-11"></path>
                <path d="M230.206862,28.5271077 C231.247843,30.7359862 232.538005,32.7171213 234.054661,34.4325557 C235.56202,32.7237057 236.860735,30.7421833 237.92775,28.5271077 L230.206862,28.5271077 Z M225.189772,46.2295082 L221.311475,42.5449456 L222.182865,42.21495 C225.597759,40.9220803 228.715867,39.2337581 230.675842,37.6306461 C226.099468,32.3576895 224.712981,27.1071974 224.652359,26.8689964 L224.652359,26.8697711 C224.649756,26.8697711 224.469007,26.3557992 224.309456,25.6249288 C224.158088,24.9498324 224.08445,24.4436068 224.081474,24.4223043 L223.985521,23.752243 L231.83472,23.752243 L231.83472,20.4360204 L224.105649,20.4360204 L224.105649,15.7006622 L231.83472,15.7006622 L231.83472,10.8196721 L236.285388,10.8196721 L236.285388,15.7006622 L245.013786,15.7006622 L245.013786,20.4360204 L236.285388,20.4360204 L236.285388,23.752243 L244.207481,23.752243 L244.083634,24.4428322 C244.083634,24.4428322 243.988425,24.977332 243.83371,25.6714071 C243.675647,26.3751651 243.498989,26.8922356 243.491923,26.9143127 C243.448409,27.0948032 242.083865,32.3390982 237.467696,37.6465262 C239.420976,39.2267864 242.558796,40.910848 246.015344,42.2211471 L246.885246,42.5511427 L243.021826,46.2244731 L242.69194,46.0819398 C238.995137,44.4842502 236.386548,42.9384613 234.071397,40.9639107 C230.836136,43.573664 228.279987,44.8285765 225.523748,46.0784539 L225.189772,46.2295082 Z" id="Fill-13"></path>
                <path d="M177.656783,43.2786885 L173.114754,39.4142206 L174.423606,39.3247225 C179.4546,38.9799226 182.855464,38.3060119 186.186211,36.966035 C183.50618,35.151468 181.942458,34.3723701 181.925392,34.3641691 L181.143717,33.9822864 L181.840807,33.4706134 C182.717085,32.8273674 183.58112,32.112095 184.481884,31.2852173 L184.778305,31.0124439 L185.135197,31.2071292 C186.806135,32.1185132 188.451104,33.1992663 190.585409,34.7909792 C193.451306,33.095862 196.082366,31.0334813 197.606021,29.5480252 L183.194549,29.5480252 C181.470188,31.1397381 179.511732,32.5182243 177.371121,33.6485401 L177.029068,33.8286062 L173.48055,30.7874504 L174.216594,30.4401546 C178.475187,28.4330417 181.105505,25.7338332 182.562753,23.8233498 L182.728215,23.6065574 L187.92875,23.6065574 L187.450545,24.4013441 C187.273211,24.6965812 187.08141,24.9968102 186.876994,25.2995352 L205.57377,25.2995352 L203.964416,28.3749214 C203.699901,28.8801761 197.262114,40.7848623 177.906459,43.2469541 L177.656783,43.2786885 Z" id="Fill-14"></path>
                <polygon id="Fill-15" points="313.770492 56.0655738 314.754098 56.0655738 314.754098 56.199095 314.36465 56.199095 314.36465 57.0491803 314.15994 57.0491803 314.15994 56.199095 313.770492 56.199095"></polygon>
                <polygon id="Fill-16" points="315.296474 56.8386276 315.195329 56.8386276 314.898591 56.3873942 314.898591 57.0491803 314.754098 57.0491803 314.754098 56.0655738 314.855243 56.0655738 315.245725 56.6657347 315.63656 56.0655738 315.737705 56.0655738 315.737705 57.0491803 315.59286 57.0491803 315.59286 56.3873942"></polygon>
            </g>
        </g>
    </g>
</svg>