<svg xmlns="http://www.w3.org/2000/svg" viewBox="0 0 96.22 60.62"><defs><style>.cls-1,.cls-2{fill:none;stroke:#814efa;stroke-width:2.52px;}.cls-1{stroke-miterlimit:10;}.cls-2{stroke-linecap:round;stroke-linejoin:round;}</style></defs><title>Asset 7</title><g id="Layer_2" data-name="Layer 2"><g id="Layer_1-2" data-name="Layer 1"><path class="cls-1" d="M28.26,19.66h-5.2v-5.2a1.58,1.58,0,0,0-1.6-1.6h-3a1.58,1.58,0,0,0-1.6,1.6v5.2h-5.2a1.58,1.58,0,0,0-1.6,1.6v3a1.58,1.58,0,0,0,1.6,1.6h5.2v5.2a1.58,1.58,0,0,0,1.6,1.6h3a1.58,1.58,0,0,0,1.6-1.6v-5.2h5.2a1.58,1.58,0,0,0,1.6-1.6v-3A1.72,1.72,0,0,0,28.26,19.66Z"/><path class="cls-2" d="M61.46,5.36a19.32,19.32,0,0,1,11.8-4h.6c16.4,0,19.6,17.3,19.6,17.3A56.09,56.09,0,0,1,95,32.06c0,15.5-.5,27.3-9.1,27.3-6.4,0-13.6-6.9-16.3-16.9h-.4a8.92,8.92,0,0,1-8.3,5.5,9,9,0,0,1-8.3-5.5h-9.1a8.9,8.9,0,0,1-8.2,5.4,8.79,8.79,0,0,1-8.2-5.4h-.4c-2.7,10-9.9,16.9-16.3,16.9-8.6,0-9.1-11.9-9.1-27.3a55.38,55.38,0,0,1,2-15.2s4.2-15.6,20-15.6h0a19.32,19.32,0,0,1,11.8,4C43.06,12.26,52,12.36,61.46,5.36Z"/><circle class="cls-1" cx="82.47" cy="22.66" r="2.8" transform="translate(8.13 64.95) rotate(-45)"/><circle class="cls-1" cx="68.36" cy="22.65" r="2.8" transform="translate(4 54.97) rotate(-45)"/><circle class="cls-1" cx="75.43" cy="29.65" r="2.8" transform="translate(1.13 62.02) rotate(-45)"/><circle class="cls-1" cx="75.44" cy="15.54" r="2.8" transform="translate(11.11 57.89) rotate(-45)"/><circle class="cls-1" cx="60.89" cy="38.87" r="5"/><circle class="cls-1" cx="35.14" cy="38.65" r="5"/><path class="cls-1" d="M51.16,27.16h-7.3a3.12,3.12,0,0,1-3.1-3.1v-2.8a3.12,3.12,0,0,1,3.1-3.1h7.3a3.12,3.12,0,0,1,3.1,3.1v2.8A3.12,3.12,0,0,1,51.16,27.16Z"/></g></g></svg>