<svg xmlns="http://www.w3.org/2000/svg" viewBox="0 0 65.15 68.52"><defs><style>.cls-1{fill:none;stroke:#814efa;stroke-linecap:round;stroke-linejoin:round;stroke-width:2.52px;}</style></defs><title>Asset 9</title><g id="Layer_2" data-name="Layer 2"><g id="Layer_1-2" data-name="Layer 1"><path class="cls-1" d="M18.38,58.16l-1.5.6a2.8,2.8,0,0,1-3.7-1.6l-7.8-19.7A2.8,2.8,0,0,1,7,33.76l1.5-.6a2.8,2.8,0,0,1,3.7,1.6L20,54.46A3,3,0,0,1,18.38,58.16Z"/><path class="cls-1" d="M46.78,58.16l1.5.6a2.8,2.8,0,0,0,3.7-1.6l7.8-19.7a2.8,2.8,0,0,0-1.6-3.7l-1.5-.6a2.8,2.8,0,0,0-3.7,1.6l-7.8,19.7A3,3,0,0,0,46.78,58.16Z"/><path class="cls-1" d="M10.38,57.66h0a2.69,2.69,0,0,1-3.6-1.6l-5.3-13.2a2.69,2.69,0,0,1,1.6-3.6h0a2.69,2.69,0,0,1,3.6,1.6L12,54.06A2.9,2.9,0,0,1,10.38,57.66Z"/><path class="cls-1" d="M54.78,57.66h0a2.69,2.69,0,0,0,3.6-1.6l5.3-13.2a2.69,2.69,0,0,0-1.6-3.6h0a2.69,2.69,0,0,0-3.6,1.6l-5.3,13.2A2.9,2.9,0,0,0,54.78,57.66Z"/><path class="cls-1" d="M53.08,58.16a5.8,5.8,0,0,1-5.8,5.8h-8.6"/><path class="cls-1" d="M35.38,67.26h-5.6a3.33,3.33,0,0,1-3.3-3.3h0a3.33,3.33,0,0,1,3.3-3.3h5.6a3.33,3.33,0,0,1,3.3,3.3h0A3.33,3.33,0,0,1,35.38,67.26Z"/><path class="cls-1" d="M3.08,38.86a28.41,28.41,0,0,1-.9-7.2,30.4,30.4,0,0,1,60.8,0,28.41,28.41,0,0,1-.9,7.2"/><path class="cls-1" d="M56.58,13.16a4.43,4.43,0,0,1-.3,5.9,3.64,3.64,0,0,1-5.4-.3,23.82,23.82,0,0,0-18.3-8.9,23.51,23.51,0,0,0-18.3,8.9,3.85,3.85,0,0,1-2.9,1.4,3.56,3.56,0,0,1-2.6-1.1,4.43,4.43,0,0,1-.3-5.9"/></g></g></svg>