<svg xmlns="http://www.w3.org/2000/svg" viewBox="0 0 67.22 67.22"><defs><style>.cls-1{fill:none;stroke:#814efa;stroke-linecap:round;stroke-linejoin:round;stroke-width:2.52px;}</style></defs><title>Asset 5</title><g id="Layer_2" data-name="Layer 2"><g id="Layer_1-2" data-name="Layer 1"><path class="cls-1" d="M39.26,66h9A17.8,17.8,0,0,0,66,48.26V19a17.8,17.8,0,0,0-17.7-17.7H19A17.8,17.8,0,0,0,1.26,19v29.3A17.8,17.8,0,0,0,19,66h14.7v-7.1"/><path class="cls-1" d="M13.56,24.36V55a3.06,3.06,0,0,0,3.2,3h33.4a3.12,3.12,0,0,0,3.2-3V24.26"/><path class="cls-1" d="M7.56,28.76l23.6-19.6a3.08,3.08,0,0,1,4.5,0l23.6,19.6"/><path class="cls-1" d="M27.36,57.16V41.36a.58.58,0,0,1,.6-.6h10.6a.58.58,0,0,1,.6.6v15.8"/></g></g></svg>