<svg xmlns="http://www.w3.org/2000/svg" viewBox="0 0 51.52 67.72"><defs><style>.cls-1,.cls-2{stroke:#814efa;}.cls-1{stroke-miterlimit:10;}.cls-2{fill:none;stroke-linecap:round;stroke-linejoin:round;stroke-width:2.52px;}</style></defs><title>Asset 6</title><g id="Layer_2" data-name="Layer 2"><g id="Layer_1-2" data-name="Layer 1"><path class="cls-1" d="M25.86,64.06a1.32,1.32,0,0,1-1.3-1.3,1.24,1.24,0,0,1,1.2-1.3,1.34,1.34,0,0,1,1.4,1.3C27.26,63.36,26.66,64,25.86,64.06Z"/><path class="cls-2" d="M43.56,66.46H8a6.7,6.7,0,0,1-6.7-6.7V8A6.7,6.7,0,0,1,8,1.26h35.6A6.7,6.7,0,0,1,50.26,8v51.8A6.7,6.7,0,0,1,43.56,66.46Z"/><path class="cls-2" d="M6,25.06l12-12"/><path class="cls-2" d="M6.26,34.56s21.6-21.5,21.5-21.5"/><line class="cls-2" x1="1.46" y1="8.66" x2="50.06" y2="8.66"/><line class="cls-2" x1="1.56" y1="59.16" x2="50.16" y2="59.16"/></g></g></svg>