<svg xmlns="http://www.w3.org/2000/svg" viewBox="0 0 103.22 68.12"><defs><style>.cls-1{fill:#814efa;}.cls-2{fill:none;stroke:#814efa;stroke-linecap:round;stroke-linejoin:round;stroke-width:2.52px;}</style></defs><title>Asset 3</title><g id="Layer_2" data-name="Layer 2"><g id="Layer_1-2" data-name="Layer 1"><path class="cls-1" d="M17.16,36.06V42h-5.9v-5.9h5.9m1.9-2.5H9.46a.68.68,0,0,0-.7.7v9.6a.68.68,0,0,0,.7.7h9.6a.68.68,0,0,0,.7-.7v-9.6a.84.84,0,0,0-.7-.7Z"/><path class="cls-1" d="M32,36.06V42h-5.9v-5.9H32m1.9-2.5h-9.6a.68.68,0,0,0-.7.7v9.6a.68.68,0,0,0,.7.7h9.6a.68.68,0,0,0,.7-.7v-9.6a.68.68,0,0,0-.7-.7Z"/><path class="cls-1" d="M46.86,36.06V42H41v-5.9h5.9m1.8-2.5h-9.6a.68.68,0,0,0-.7.7v9.6a.68.68,0,0,0,.7.7h9.6a.68.68,0,0,0,.7-.7v-9.6a.68.68,0,0,0-.7-.7Z"/><path class="cls-1" d="M61.66,36.06V42h-5.9v-5.9h5.9m1.9-2.5H54a.68.68,0,0,0-.7.7v9.6a.68.68,0,0,0,.7.7h9.6a.68.68,0,0,0,.7-.7v-9.6a.84.84,0,0,0-.7-.7Z"/><path class="cls-1" d="M17.16,21.16v5.9h-5.9v-5.9h5.9m1.9-2.5H9.46a.68.68,0,0,0-.7.7V29a.68.68,0,0,0,.7.7h9.6a.68.68,0,0,0,.7-.7v-9.6a.84.84,0,0,0-.7-.7Z"/><path class="cls-1" d="M32,21.16v5.9h-5.9v-5.9H32m1.9-2.5h-9.6a.68.68,0,0,0-.7.7V29a.68.68,0,0,0,.7.7h9.6a.68.68,0,0,0,.7-.7v-9.6a.68.68,0,0,0-.7-.7Z"/><path class="cls-1" d="M46.86,21.16v5.9H41v-5.9h5.9m1.8-2.5h-9.6a.68.68,0,0,0-.7.7V29a.68.68,0,0,0,.7.7h9.6a.68.68,0,0,0,.7-.7v-9.6a.68.68,0,0,0-.7-.7Z"/><path class="cls-1" d="M61.66,21.16v5.9h-5.9v-5.9h5.9m1.9-2.5H54a.68.68,0,0,0-.7.7V29a.68.68,0,0,0,.7.7h9.6a.68.68,0,0,0,.7-.7v-9.6a.84.84,0,0,0-.7-.7Z"/><path class="cls-1" d="M17.16,51.06V57h-5.9v-5.9h5.9m1.9-2.6H9.46a.68.68,0,0,0-.7.7v9.6a.68.68,0,0,0,.7.7h9.6a.68.68,0,0,0,.7-.7v-9.6a.84.84,0,0,0-.7-.7Z"/><path class="cls-1" d="M76.56,21.16v5.9h-5.9v-5.9h5.9m1.9-2.5h-9.6a.68.68,0,0,0-.7.7V29a.68.68,0,0,0,.7.7h9.6a.68.68,0,0,0,.7-.7v-9.6a.68.68,0,0,0-.7-.7Z"/><path class="cls-1" d="M91.26,36.06V42H70.66v-5.9h20.6m1.9-2.5H68.86a.68.68,0,0,0-.7.7v9.6a.68.68,0,0,0,.7.7h24.3a.68.68,0,0,0,.7-.7v-9.6a.84.84,0,0,0-.7-.7Z"/><path class="cls-1" d="M91.26,21.16v5.9h-5.9v-5.9h5.9m1.8-2.5h-9.6a.68.68,0,0,0-.7.7V29a.68.68,0,0,0,.7.7h9.6a.68.68,0,0,0,.7-.7v-9.6a.68.68,0,0,0-.7-.7Z"/><path class="cls-1" d="M76.56,51.06V57H26.06v-5.9h50.5m1.9-2.6H24.26a.68.68,0,0,0-.7.7v9.6a.68.68,0,0,0,.7.7h54.2a.68.68,0,0,0,.7-.7v-9.6a.68.68,0,0,0-.7-.7Z"/><path class="cls-1" d="M91.26,51.06V57h-5.9v-5.9h5.9m1.9-2.6h-9.6a.68.68,0,0,0-.7.7v9.6a.68.68,0,0,0,.7.7h9.6a.68.68,0,0,0,.7-.7v-9.6a.68.68,0,0,0-.7-.7Z"/><path class="cls-2" d="M57.76,11.36h34.5c5.3,0,9.7,3.8,9.7,8.4v38.7c0,4.6-4.4,8.4-9.7,8.4H11c-5.3,0-9.7-3.8-9.7-8.4V19.76c0-4.6,4.4-8.4,9.7-8.4h40.6V1.26"/></g></g></svg>