<svg xmlns="http://www.w3.org/2000/svg" viewBox="0 0 42.92 68.12"><defs><style>.cls-1{fill:none;stroke-linecap:round;stroke-linejoin:round;stroke-width:2.52px;}.cls-1,.cls-2{stroke:#814efa;}.cls-2{stroke-miterlimit:10;}</style></defs><title>Asset 4</title><g id="Layer_2" data-name="Layer 2"><g id="Layer_1-2" data-name="Layer 1"><path class="cls-1" d="M21.46,66.86h0a20.27,20.27,0,0,1-20.2-20.2V21.46a20.27,20.27,0,0,1,20.2-20.2h0a20.27,20.27,0,0,1,20.2,20.2v25.2A20.4,20.4,0,0,1,21.46,66.86Z"/><line class="cls-1" x1="21.46" y1="20.66" x2="21.46" y2="35.56"/><line class="cls-1" x1="21.46" y1="1.26" x2="21.46" y2="8.66"/><circle class="cls-2" cx="21.46" cy="39.66" r="1.5"/><path class="cls-1" d="M21.46,20.26h0a3.16,3.16,0,0,1-3.2-3.2v-5.2a3.16,3.16,0,0,1,3.2-3.2h0a3.16,3.16,0,0,1,3.2,3.2v5.2A3.29,3.29,0,0,1,21.46,20.26Z"/></g></g></svg>